<svg xmlns="http://www.w3.org/2000/svg" width="110.15" height="26" viewBox="0 0 110.15 26"><title>dimensions</title><polygon points="11.13 14.87 11.13 7.78 5.4 14.87 11.13 14.87" fill="none"/><polygon points="75.88 4.06 77.51 4.06 75.47 0 73.44 4.06 75.07 4.06 75.07 21.94 73.44 21.94 75.47 26 77.51 21.94 75.88 21.94 75.88 4.06" fill="#383838"/><path d="M12.4,6.71H10.69L4.08,14.88v1h7.05v3.43H12.4V15.84h2.19v-1H12.4Zm-1.27,8.16H5.4l5.74-7.08Z" fill="#383838"/><path d="M18.92,17.8a.92.92,0,0,0-1,.81.94.94,0,0,0,1,.85,1,1,0,0,0,1-.85A1,1,0,0,0,18.92,17.8Z" fill="#383838"/><polygon points="21.81 7.69 30.04 7.69 23.79 19.27 25.2 19.27 31.56 7.46 31.56 6.71 21.81 6.71 21.81 7.69" fill="#383838"/><path d="M42.22,7.48a5.79,5.79,0,0,1,4.35,1.83l1.07-.58A7.21,7.21,0,0,0,42.22,6.5C38,6.5,34.68,9.14,34.68,13s3.33,6.5,7.54,6.5a7.16,7.16,0,0,0,5.42-2.24l-1.07-.57a5.79,5.79,0,0,1-4.35,1.83c-3.5,0-6.2-2.28-6.2-5.52S38.72,7.48,42.22,7.48Z" fill="#383838"/><polygon points="58.31 17.07 53.25 6.71 51.35 6.71 51.35 19.27 52.62 19.27 52.62 8.18 58.07 19.27 58.56 19.27 63.98 8.18 63.98 19.27 65.28 19.27 65.28 6.71 63.36 6.71 58.31 17.07" fill="#383838"/><rect x="66.09" y="25.19" width="3.26" height="0.81" fill="#929292"/><rect x="88.94" y="25.19" width="3.26" height="0.81" fill="#929292"/><rect x="81.59" y="25.19" width="3.26" height="0.81" fill="#929292"/><rect x="96.28" y="25.19" width="3.26" height="0.81" fill="#929292"/><rect x="103.63" y="25.19" width="6.53" height="0.81" fill="#929292"/><rect x="66.09" width="3.26" height="0.81" fill="#929292"/><rect x="88.94" width="3.26" height="0.81" fill="#929292"/><rect x="81.59" width="3.26" height="0.81" fill="#929292"/><rect x="96.28" width="3.26" height="0.81" fill="#929292"/><rect x="51.4" y="25.19" width="3.26" height="0.81" fill="#929292"/><rect x="44.06" y="25.19" width="3.26" height="0.81" fill="#929292"/><rect x="58.75" y="25.19" width="3.26" height="0.81" fill="#929292"/><rect x="51.4" width="3.26" height="0.81" fill="#929292"/><rect x="44.06" width="3.26" height="0.81" fill="#929292"/><rect x="58.75" width="3.26" height="0.81" fill="#929292"/><rect x="29.37" y="25.19" width="3.26" height="0.81" fill="#929292"/><rect x="22.03" y="25.19" width="3.26" height="0.81" fill="#929292"/><rect x="36.72" y="25.19" width="3.26" height="0.81" fill="#929292"/><rect x="29.37" width="3.26" height="0.81" fill="#929292"/><rect x="22.03" width="3.26" height="0.81" fill="#929292"/><rect x="36.72" width="3.26" height="0.81" fill="#929292"/><rect x="7.34" y="25.19" width="3.26" height="0.81" fill="#929292"/><rect y="25.19" width="3.26" height="0.81" fill="#929292"/><rect x="14.69" y="25.19" width="3.26" height="0.81" fill="#929292"/><rect x="7.34" width="3.26" height="0.81" fill="#929292"/><rect width="3.26" height="0.81" fill="#929292"/><rect x="14.69" width="3.26" height="0.81" fill="#929292"/><rect x="103.63" width="6.53" height="0.81" fill="#929292"/></svg>