<svg xmlns="http://www.w3.org/2000/svg" width="145.83" height="145.83" viewBox="0 0 145.83 145.83"><title>speedometer</title><path d="M77.84,140.94a.5.5,0,0,1,0-1,67.85,67.85,0,0,0,10.83-1.69.53.53,0,0,1,.64.36.47.47,0,0,1-.33.59l-.07,0a68.92,68.92,0,0,1-11,1.71Zm-10.11,0h0a67.89,67.89,0,0,1-11.05-1.79.5.5,0,1,1,.24-1,67,67,0,0,0,10.89,1.76.5.5,0,0,1,0,1Zm30.71-4.78a.5.5,0,0,1-.19-1,67,67,0,0,0,9.85-5,.5.5,0,1,1,.52.85,68,68,0,0,1-10,5A.51.51,0,0,1,98.44,136.14ZM47.16,136a.49.49,0,0,1-.19,0,68.7,68.7,0,0,1-10-5.11.5.5,0,1,1,.53-.85,67.69,67.69,0,0,0,9.82,5,.5.5,0,0,1-.19,1Zm69.4-10.77a.5.5,0,0,1-.32-.88,67.18,67.18,0,0,0,7.82-7.78.5.5,0,0,1,.76.65,68.1,68.1,0,0,1-7.94,7.9A.5.5,0,0,1,116.55,125.22ZM29.11,125a.5.5,0,0,1-.32-.12,68.27,68.27,0,0,1-7.9-7.93.5.5,0,0,1,.76-.64,67.19,67.19,0,0,0,7.79,7.82.5.5,0,0,1-.32.88Zm101.29-15.74a.5.5,0,0,1-.42-.76,67.73,67.73,0,0,0,5-9.81.5.5,0,1,1,.92.38,68.76,68.76,0,0,1-5.12,10A.5.5,0,0,1,130.39,109.22ZM15.34,108.9a.5.5,0,0,1-.43-.24,67.77,67.77,0,0,1-5-10,.5.5,0,1,1,.93-.37,67,67,0,0,0,5,9.84.5.5,0,0,1-.16.69A.49.49,0,0,1,15.34,108.9Zm123.3-19.16h-.12a.5.5,0,0,1-.37-.61,67,67,0,0,0,1.77-10.89.49.49,0,0,1,.54-.46.5.5,0,0,1,.46.54,67.86,67.86,0,0,1-1.79,11.05A.5.5,0,0,1,138.64,89.73ZM7.19,89.31A.43.43,0,0,1,6.75,89l0-.12A68.82,68.82,0,0,1,5,77.91a.5.5,0,0,1,1-.07A67.73,67.73,0,0,0,7.7,88.63a.55.55,0,0,1-.36.66ZM140.45,68.65a.5.5,0,0,1-.5-.46,67.94,67.94,0,0,0-1.69-10.87l1-.26-.49.11.49-.09a69,69,0,0,1,1.72,11,.5.5,0,0,1-.46.54ZM5.53,68.27h0A.5.5,0,0,1,5,67.73,67.88,67.88,0,0,1,6.81,56.67a.5.5,0,0,1,1,.24A67,67,0,0,0,6,67.81.5.5,0,0,1,5.53,68.27ZM135.65,48a.5.5,0,0,1-.46-.31,66.93,66.93,0,0,0-5-9.85.5.5,0,1,1,.85-.52,68,68,0,0,1,5,10,.5.5,0,0,1-.28.65A.51.51,0,0,1,135.65,48ZM10.45,47.69a.49.49,0,0,1-.19,0A.5.5,0,0,1,10,47a68.7,68.7,0,0,1,5.11-10,.5.5,0,0,1,.85.53,67.69,67.69,0,0,0-5,9.82A.5.5,0,0,1,10.45,47.69ZM124.74,29.93a.5.5,0,0,1-.38-.18,67.09,67.09,0,0,0-7.78-7.82.5.5,0,1,1,.65-.76,68.19,68.19,0,0,1,7.89,7.94.5.5,0,0,1-.38.82ZM21.47,29.64a.5.5,0,0,1-.38-.82A68.33,68.33,0,0,1,29,20.9a.5.5,0,0,1,.65.76,67.27,67.27,0,0,0-7.81,7.79A.5.5,0,0,1,21.47,29.64Zm87.27-13.56a.5.5,0,0,1-.26-.08A67.69,67.69,0,0,0,98.67,11a.5.5,0,1,1,.38-.92,68.92,68.92,0,0,1,10,5.13.5.5,0,0,1-.26.92Zm-71.22-.22a.5.5,0,0,1-.26-.93,67.82,67.82,0,0,1,10-5.06.5.5,0,1,1,.38.93,66.74,66.74,0,0,0-9.84,5A.49.49,0,0,1,37.53,15.86Zm51.74-8h-.12A66.91,66.91,0,0,0,78.26,6a.5.5,0,0,1-.46-.54A.5.5,0,0,1,78.34,5a67.85,67.85,0,0,1,11.05,1.8.5.5,0,0,1-.12,1ZM57.06,7.75a.5.5,0,0,1-.12-1l.15,0A69,69,0,0,1,68.16,5a.5.5,0,1,1,.07,1A67.94,67.94,0,0,0,57.32,7.7l-.15,0Z" fill="#fff"/><path d="M18.74,53.28l.16-.41Z" fill="#f64f01"/><path d="M23.49,43.33l.26-.43Z" fill="#f64f01"/><path d="M17.8,56.12l.15-.5Z" fill="#f64f01"/><path d="M19.73,50.76l.14-.33Z" fill="#f64f01"/><path d="M22.24,45.51l.07-.12Z" fill="#f64f01"/><path d="M20.88,48.2l.23-.48Z" fill="#f64f01"/><path d="M17.1,58.58l0-.07Z" fill="#f64f01"/><path d="M15.36,70.32c0-.19,0-.37,0-.56C15.37,70,15.37,70.14,15.36,70.32Z" fill="#f64f01"/><path d="M18.45,68.78c0,.33-.06.66-.08,1C18.4,69.44,18.43,69.11,18.45,68.78Z" fill="#f64f01"/><path d="M15.92,64.47c0-.13,0-.26.06-.4C16,64.2,15.94,64.34,15.92,64.47Z" fill="#f64f01"/><path d="M16.42,61.59l.11-.54Z" fill="#f64f01"/><path d="M28.3,36.48l.34-.41Z" fill="#f64f01"/><path d="M36.13,28.6l.21-.18Z" fill="#f64f01"/><path d="M38.25,26.92l.43-.32Z" fill="#f64f01"/><path d="M130.66,73A57.69,57.69,0,0,0,40.59,25.24l1.68,2.47h0A54.7,54.7,0,0,1,127.68,73h3Z" fill="#f64f01"/><path d="M34.57,34l.43-.41Z" fill="#f64f01"/><path d="M34.07,30.39l.35-.31Z" fill="#f64f01"/><path d="M25.06,40.86l.26-.37Z" fill="#f64f01"/><path d="M18.8,65.48q-.07.54-.14,1.09Q18.72,66,18.8,65.48Z" fill="#f64f01"/><path d="M32,32.4l.35-.35Z" fill="#f64f01"/><path d="M26.62,38.65l.19-.26Z" fill="#f64f01"/><path d="M30.24,34.23l.14-.15Z" fill="#f64f01"/><path d="M15.58,67.22c0-.14,0-.29,0-.43C15.61,66.93,15.59,67.07,15.58,67.22Z" fill="#f64f01"/><path d="M21.14,55.52c-.09.28-.19.56-.28.84C20.94,56.08,21,55.8,21.14,55.52Z" fill="#f64f01"/><path d="M26.79,43.68l-.4.62Z" fill="#f64f01"/><path d="M20,59.34l0,.08Z" fill="#f64f01"/><path d="M24.84,47l0,0Z" fill="#f64f01"/><path d="M28.6,41l-.52.73Z" fill="#f64f01"/><path d="M23.48,49.67c-.13.27-.24.54-.36.8C23.24,50.21,23.36,49.94,23.48,49.67Z" fill="#f64f01"/><path d="M22.25,52.5l-.37.93Z" fill="#f64f01"/><path d="M30.45,38.58l-.48.61Z" fill="#f64f01"/><path d="M37.42,31.43,36.8,32Z" fill="#f64f01"/><path d="M19.31,62.36c-.06.32-.11.64-.17,1C19.2,63,19.25,62.68,19.31,62.36Z" fill="#f64f01"/><path d="M39.81,29.49l-.57.45Z" fill="#f64f01"/><path d="M40.59,25.24h0c-.64.44-1.28.89-1.9,1.36l-.43.32c-.65.49-1.29,1-1.91,1.5l-.21.18q-.87.72-1.71,1.48l-.35.31q-.89.81-1.74,1.66L32,32.4q-.81.82-1.6,1.67l-.14.15c-.55.6-1.08,1.22-1.6,1.85l-.34.41q-.77.94-1.5,1.91l-.19.26q-.67.9-1.3,1.83l-.26.37q-.67,1-1.3,2l-.26.43c-.41.68-.8,1.36-1.18,2.06l-.07.12c-.39.72-.77,1.46-1.13,2.2l-.23.48c-.35.74-.69,1.48-1,2.23l-.14.33q-.44,1-.83,2.11l-.16.41q-.42,1.15-.79,2.33l-.15.5c-.24.79-.47,1.58-.68,2.38l0,.07c-.21.82-.4,1.65-.57,2.48l-.11.54c-.16.82-.31,1.64-.44,2.48,0,.13,0,.26-.06.4q-.17,1.15-.29,2.32c0,.14,0,.29,0,.43q-.13,1.27-.19,2.55c0,.18,0,.37,0,.56,0,.88-.07,1.76-.07,2.65A57.69,57.69,0,0,0,73,130.66v-3A54.7,54.7,0,0,1,18.28,73c0-1.08,0-2.15.1-3.21,0-.33.05-.66.08-1,.06-.74.12-1.48.21-2.21q.06-.55.14-1.09c.1-.73.22-1.45.34-2.17.06-.32.11-.64.17-1,.19-1,.41-2,.66-2.94l0-.08c.26-1,.55-2,.86-3,.09-.28.19-.56.28-.84.24-.7.48-1.4.75-2.09l.37-.93q.41-1,.87-2c.12-.27.24-.54.36-.8.43-.9.87-1.79,1.34-2.67l0,0c.49-.91,1-1.79,1.55-2.67l.4-.62q.62-1,1.29-1.94L28.6,41q.67-.92,1.37-1.82l.48-.61A55,55,0,0,1,34.57,34l.43-.41q.88-.85,1.81-1.67l.62-.54q.89-.77,1.82-1.49l.57-.45c.8-.61,1.62-1.21,2.45-1.78h0Z" fill="#fff"/><path d="M50.51,74.35A5.58,5.58,0,0,1,50,76.64a5.67,5.67,0,0,1-1.27,1.84,6,6,0,0,1-1.91,1.24,6.13,6.13,0,0,1-2.36.45A6.22,6.22,0,0,1,42,79.7a5.67,5.67,0,0,1-1.93-1.41,6.66,6.66,0,0,1-1.24-2.22,9.25,9.25,0,0,1-.45-3,19.6,19.6,0,0,1,.45-4.49,10.24,10.24,0,0,1,1.27-3.2,5.51,5.51,0,0,1,2-1.91,5.28,5.28,0,0,1,2.55-.62,5.6,5.6,0,0,1,3,.84,5.32,5.32,0,0,1,2,2.32l-1.05,1a4.32,4.32,0,0,0-4-2.67,3.72,3.72,0,0,0-1.91.5,4.45,4.45,0,0,0-1.48,1.46,8,8,0,0,0-1,2.32A13.36,13.36,0,0,0,40,71.7a4.52,4.52,0,0,1,1.79-2.24,5.24,5.24,0,0,1,2.91-.84,5.66,5.66,0,0,1,2.27.45,5.48,5.48,0,0,1,1.86,1.22,5.64,5.64,0,0,1,1.69,4.06Zm-6,4.39a4.29,4.29,0,0,0,1.69-.33,4.59,4.59,0,0,0,1.41-1,4.15,4.15,0,0,0,1-1.38A4.21,4.21,0,0,0,49,74.35a4,4,0,0,0-.36-1.69,4.39,4.39,0,0,0-1-1.41,4.26,4.26,0,0,0-1.41-.93A4,4,0,0,0,44.52,70a4.21,4.21,0,0,0-1.72.36,4.36,4.36,0,0,0-2.36,2.34,4.29,4.29,0,0,0-.33,1.69A4,4,0,0,0,40.47,76a4.51,4.51,0,0,0,2.36,2.36A4.47,4.47,0,0,0,44.55,78.74Z" fill="#f64f01"/><path d="M61,79.94l-4.58-6.37L53.77,76v3.89H52.15V62.51h1.62V74.35l7-6.83h1.84l-5.08,5.08,5.28,7.33Z" fill="#f64f01"/><path d="M82.11,79.94H80.49V73a5.82,5.82,0,0,0-.69-3.2,2.31,2.31,0,0,0-2.05-1,3.57,3.57,0,0,0-1.36.26,4.38,4.38,0,0,0-1.17.74,5.14,5.14,0,0,0-.93,1.15,5.27,5.27,0,0,0-.62,1.43v7.59H72V73a6,6,0,0,0-.67-3.22,2.3,2.3,0,0,0-2.05-1,3.66,3.66,0,0,0-2.51,1,5.45,5.45,0,0,0-1.58,2.58v7.61H63.61V67.5h1.48v2.82a5.78,5.78,0,0,1,2-2.22,4.91,4.91,0,0,1,2.75-.81,3.49,3.49,0,0,1,2.51.88,3.81,3.81,0,0,1,1.17,2.32q1.74-3.2,4.8-3.2a3.72,3.72,0,0,1,1.77.38,2.88,2.88,0,0,1,1.17,1.1,4.65,4.65,0,0,1,.64,1.69,10.28,10.28,0,0,1,.21,2.2Z" fill="#f64f01"/><path d="M96.31,63,85,79.94H83.21L94.48,63Z" fill="#f64f01"/><path d="M108,79.94H106.4V73a5.54,5.54,0,0,0-.74-3.17,2.4,2.4,0,0,0-2.12-1.05,3.6,3.6,0,0,0-1.39.29,4.89,4.89,0,0,0-1.26.74,5.41,5.41,0,0,0-1.05,1.12,4.93,4.93,0,0,0-.64,1.41v7.61H97.57V62.51h1.62v7.81a5.64,5.64,0,0,1,2.05-2.22,5.31,5.31,0,0,1,2.84-.81,3.73,3.73,0,0,1,1.81.41,3.22,3.22,0,0,1,1.22,1.1,4.68,4.68,0,0,1,.69,1.69,10.1,10.1,0,0,1,.22,2.17Z" fill="#f64f01"/><path d="M73,.37h0a1,1,0,0,1,1,1v8a1,1,0,0,1-1,1h0a1,1,0,0,1-1-1v-8A1,1,0,0,1,73,.37Z" fill="#f64f01"/><path d="M51,6.68h0a1,1,0,0,1,1.27.6l1,2.81a1,1,0,0,1-.6,1.27h0a1,1,0,0,1-1.27-.6L50.44,8A1,1,0,0,1,51,6.68Z" fill="#f64f01"/><path d="M31,16.86h0a1,1,0,0,1,1.39.24l1.72,2.44a1,1,0,0,1-.24,1.39h0a1,1,0,0,1-1.39-.24l-1.72-2.44A1,1,0,0,1,31,16.86Z" fill="#f64f01"/><path d="M15.88,32h0a1,1,0,0,1,1.39-.22l2.41,1.75a1,1,0,0,1,.22,1.39h0a1,1,0,0,1-1.39.22L16.1,33.4A1,1,0,0,1,15.88,32Z" fill="#f64f01"/><path d="M5.72,52h0A1,1,0,0,1,7,51.47L9.78,52.6a1,1,0,0,1,.55,1.3h0a1,1,0,0,1-1.3.55L6.27,53.31A1,1,0,0,1,5.72,52Z" fill="#f64f01"/><path d="M140,52h0a1,1,0,0,1-.6,1.27l-2.81,1a1,1,0,0,1-1.27-.6h0a1,1,0,0,1,.6-1.27l2.81-1A1,1,0,0,1,140,52Z" fill="#f64f01"/><path d="M129.83,32h0a1,1,0,0,1-.24,1.39l-2.44,1.72a1,1,0,0,1-1.39-.24h0A1,1,0,0,1,126,33.5l2.44-1.72A1,1,0,0,1,129.83,32Z" fill="#f64f01"/><path d="M114.68,16.87h0a1,1,0,0,1,.22,1.39l-1.75,2.41a1,1,0,0,1-1.39.22h0a1,1,0,0,1-.22-1.39l1.75-2.41A1,1,0,0,1,114.68,16.87Z" fill="#f64f01"/><path d="M94.67,6.72h0A1,1,0,0,1,95.22,8l-1.13,2.76a1,1,0,0,1-1.3.55h0a1,1,0,0,1-.55-1.3l1.13-2.76A1,1,0,0,1,94.67,6.72Z" fill="#f64f01"/><path d="M5.68,95.49h0a1,1,0,0,1,.6-1.27l2.81-1a1,1,0,0,1,1.27.6h0a1,1,0,0,1-.6,1.27L7,96.09A1,1,0,0,1,5.68,95.49Z" fill="#dcdcdc"/><path d="M15.86,115.5h0a1,1,0,0,1,.24-1.39l2.44-1.72a1,1,0,0,1,1.39.24h0a1,1,0,0,1-.24,1.39l-2.44,1.72A1,1,0,0,1,15.86,115.5Z" fill="#dcdcdc"/><rect x="29.99" y="127.65" width="4.97" height="1.99" rx="0.99" ry="0.99" transform="translate(-90.66 79.25) rotate(-53.98)" fill="#dcdcdc"/><rect x="49.47" y="137.51" width="4.97" height="1.99" rx="0.99" ry="0.99" transform="translate(-95.91 134.32) rotate(-67.82)" fill="#dcdcdc"/><path d="M94.5,141h0a1,1,0,0,1-1.27-.6l-1-2.81a1,1,0,0,1,.6-1.27h0a1,1,0,0,1,1.27.6l1,2.81A1,1,0,0,1,94.5,141Z" fill="#a9a9a9"/><path d="M114.51,130.82h0a1,1,0,0,1-1.39-.24l-1.72-2.44a1,1,0,0,1,.24-1.39h0A1,1,0,0,1,113,127l1.72,2.44A1,1,0,0,1,114.51,130.82Z" fill="#a9a9a9"/><path d="M129.66,115.67h0a1,1,0,0,1-1.39.22l-2.41-1.75a1,1,0,0,1-.22-1.39h0a1,1,0,0,1,1.39-.22l2.41,1.75A1,1,0,0,1,129.66,115.67Z" fill="#a9a9a9"/><path d="M139.81,95.67h0a1,1,0,0,1-1.3.55l-2.76-1.13a1,1,0,0,1-.55-1.3h0a1,1,0,0,1,1.3-.55l2.76,1.13A1,1,0,0,1,139.81,95.67Z" fill="#a9a9a9"/><path d="M73,135.63h0a1,1,0,0,1,1,1v8a1,1,0,0,1-1,1h0a1,1,0,0,1-1-1v-8A1,1,0,0,1,73,135.63Z" fill="#f64f01"/><path d="M.37,73h0a1,1,0,0,1,1-1h8a1,1,0,0,1,1,1h0a1,1,0,0,1-1,1h-8A1,1,0,0,1,.37,73Z" fill="#f64f01"/><path d="M135.63,73h0a1,1,0,0,1,1-1h8a1,1,0,0,1,1,1h0a1,1,0,0,1-1,1h-8A1,1,0,0,1,135.63,73Z" fill="#f64f01"/></svg>