<svg xmlns="http://www.w3.org/2000/svg" width="183" height="26" viewBox="0 0 183 26"><title>itread-logo</title><path d="M26,3.08,26.88,0H55.56L53.45,3.08H44.09L37.75,25.66H29.9L36.24,3.08Z"/><path d="M52.24,25.66,59.49,0H75.8L73.08,2.74H66.74L64,11.63h9.36L76.7,0h7.85L80.33,14.71H76.1l2.11,10.95H69.76L67.34,14.71H63.11L60.4,25.66Z"/><path d="M89.08,0h25.06l-2.42,2.74H96.33l-2.42,8.21h16.61L108.11,14H93l-2.42,8.89h17.21l-2.11,2.74H81.84Z"/><path d="M111.13,25.66,127.13,0h14.8L144,25.66h-8.15L134.68,3.08h-1.51l-7.85,13.34h9.36L132,19.5h-8.76l-3.93,6.16Z"/><path d="M148.88,25.66,155.82,0h19.33l-2.72,3.08h-9.36l-5.74,19.84h12.38L176.05,0h5.13L183,2.74V4.11l-5.13,18.13-3.93,3.42Z"/><path d="M7.85,26H0L7.25,0H15.1Z" fill="#f64f01"/></svg>